<svg width="24" height="24" viewBox="0 0 24 24" fill="none" xmlns="http://www.w3.org/2000/svg">
<path d="M18.4399 20.9041C17.0023 23.3 11.2524 23.7791 8.8566 22.8208L7.89826 19.0939L5.4066 9.40409L4.5441 6.04992C0.710687 2.21662 18.4398 -0.658429 17.0024 3.65409L17.3219 7.48742L18.1604 17.5499L18.4399 20.9041Z" fill="#FFFAF4"/>
<path d="M17 4.62C15 6.21997 7.89836 7.72421 4.54419 6.76588" stroke="#B66375" stroke-width="0.55" stroke-linecap="round" stroke-linejoin="round"/>
<path d="M17.0024 3.65409L17.3219 7.48742M17.0024 3.65409C15.0858 5.57075 7.89826 7.00825 4.5441 6.04992M17.0024 3.65409C18.4398 -0.658429 0.710687 2.21662 4.5441 6.04992M4.5441 6.04992L5.4066 9.40409M5.4066 9.40409C8.37743 10.3624 15.6608 9.02075 17.3219 7.48742M5.4066 9.40409L7.89826 19.0939M17.3219 7.48742L18.1604 17.5499M7.89826 19.0939L8.8566 22.8208C11.2524 23.7791 17.0023 23.3 18.4399 20.9041L18.1604 17.5499M7.89826 19.0939C11.2524 19.9458 16.4035 19.0833 18.1604 17.5499" stroke="#0C0A09" stroke-width="1.4" stroke-linejoin="round"/>
<path d="M17.3218 7.48999C15.6607 9.02332 8.37733 10.365 5.40649 9.40666L7.89816 19.0965C11.2523 19.9483 16.4034 19.0858 18.1603 17.5525L17.3218 7.48999Z" stroke="#002B21" stroke-width="1.4"/>
<path d="M17.3218 7.48999C15.6607 9.02332 8.37733 10.365 5.40649 9.40666L7.89816 19.0965C11.2523 19.9483 16.4034 19.0858 18.1603 17.5525L17.3218 7.48999Z" fill="#14B6A4" stroke="#14B6A4" stroke-width="0.4" stroke-linejoin="round"/>
<path d="M4.5441 5.66992C7.89826 6.62825 15.0858 5.19075 17.0024 3.27408C18.4398 -1.03843 0.710687 1.83662 4.5441 5.66992Z" fill="#FF89A4" stroke="#FF89A4" stroke-width="2.2" stroke-linejoin="round"/>
<path d="M17.0024 3.27408C18.4398 -1.03843 0.710687 1.83662 4.5441 5.66992" stroke="#B66375" stroke-width="0.55" stroke-linecap="round" stroke-linejoin="round"/>
<g style="mix-blend-mode:multiply">
<path d="M10.5646 11.811C10.5798 11.8973 10.5977 12.009 10.6182 12.1463C10.638 12.28 10.6596 12.4337 10.6828 12.6076C10.7097 12.7808 10.7372 12.9687 10.7656 13.1713C10.7932 13.3704 10.8243 13.5781 10.8587 13.7944C10.9522 13.7149 11.0658 13.6337 11.1995 13.5508C11.3361 13.4637 11.4775 13.372 11.6237 13.2758C11.7734 13.179 11.9204 13.0771 12.0647 12.9701C12.2126 12.8624 12.3444 12.7484 12.4604 12.6278C12.7438 12.322 12.9487 12.0542 13.075 11.8243C13.2042 11.5902 13.2536 11.3869 13.2232 11.2143C13.2105 11.1424 13.1872 11.0835 13.1531 11.0376C13.1227 10.991 13.0878 10.9508 13.0485 10.917C12.9575 10.8848 12.8265 10.8672 12.6554 10.864C12.4879 10.8601 12.2855 10.8791 12.0482 10.921C11.8252 10.9603 11.6037 11.0179 11.3835 11.0938C11.1663 11.1655 10.9582 11.2466 10.7591 11.3373C10.5595 11.4245 10.3733 11.5147 10.2008 11.6082C10.0318 11.701 9.8819 11.7868 9.75118 11.8654C9.62046 11.9441 9.51576 12.0126 9.43708 12.0709C9.35776 12.1257 9.30974 12.1583 9.29303 12.1686C9.27633 12.179 9.25697 12.1954 9.23497 12.2178C9.21593 12.236 9.19563 12.247 9.17406 12.2508C9.12731 12.259 9.09178 12.2468 9.06747 12.214C9.04315 12.1812 9.0311 12.1444 9.03132 12.1036C9.00065 12.0979 8.97379 12.0822 8.95074 12.0566C8.92706 12.0274 8.90665 11.9958 8.88953 11.9617C8.8724 11.9277 8.85919 11.8948 8.84988 11.8631C8.83995 11.8278 8.8334 11.8011 8.83023 11.7831C8.81755 11.7112 8.83701 11.6429 8.88863 11.5782C8.9432 11.5092 9.01703 11.4443 9.11009 11.3834C9.13336 11.3682 9.18286 11.3335 9.25858 11.2794C9.3379 11.2246 9.43784 11.1607 9.5584 11.0875C9.68193 11.0101 9.82132 10.9281 9.97657 10.8414C10.1318 10.7547 10.2988 10.6715 10.4775 10.5918C10.6556 10.5085 10.8407 10.4332 11.0327 10.366C11.2248 10.2987 11.4179 10.248 11.6121 10.2138C11.7529 10.1926 11.9037 10.1753 12.0645 10.1618C12.2246 10.1447 12.3854 10.1423 12.547 10.1546C12.7086 10.1669 12.8622 10.1972 13.0079 10.2457C13.1572 10.2935 13.2894 10.3703 13.4045 10.4761C13.5191 10.5374 13.6262 10.6298 13.7258 10.7531C13.8284 10.8722 13.8964 11.027 13.93 11.2175C13.9535 11.3506 13.9621 11.4733 13.956 11.5856C13.9528 11.6936 13.946 11.7708 13.9357 11.8171C13.8834 12.0673 13.7984 12.2899 13.6808 12.4849C13.5668 12.6793 13.4361 12.8525 13.2886 13.0045C13.1442 13.1523 12.9947 13.2825 12.8403 13.395C12.6859 13.5075 12.5451 13.6027 12.418 13.6808C12.569 13.6541 12.7249 13.6341 12.8856 13.6205C13.05 13.6064 13.2129 13.6055 13.3745 13.6178C13.5391 13.6258 13.6996 13.6531 13.8561 13.6997C14.0126 13.7462 14.1618 13.8145 14.3037 13.9044C14.398 13.9767 14.4864 14.0575 14.5689 14.1468C14.638 14.2236 14.7046 14.3175 14.7687 14.4285C14.8357 14.5353 14.8813 14.6571 14.9054 14.7937C14.9422 14.8762 14.9704 14.9731 14.9901 15.0846C15.0122 15.2105 15.0262 15.3526 15.0319 15.511C15.038 15.6508 15.0213 15.8187 14.9817 16.0148C14.9421 16.2108 14.8639 16.4192 14.7471 16.64C14.6304 16.8608 14.4662 17.0863 14.2547 17.3163C14.0461 17.5422 13.7723 17.7554 13.4332 17.9561C13.2226 18.0859 13.0272 18.1871 12.8472 18.2596C12.6673 18.3321 12.5017 18.3817 12.3507 18.4083C12.2788 18.421 12.1985 18.4278 12.1096 18.4286C12.0244 18.4288 11.9415 18.4212 11.8609 18.4057C11.7846 18.3933 11.7177 18.3717 11.6604 18.341C11.6067 18.3097 11.5751 18.2671 11.5656 18.2131C11.5605 18.1844 11.548 18.1662 11.5282 18.1586C11.5076 18.1473 11.485 18.1347 11.4603 18.1205C11.4531 18.1848 11.4401 18.2371 11.4212 18.2775C11.406 18.3173 11.3877 18.3502 11.3663 18.3762C11.342 18.4064 11.3164 18.4295 11.2895 18.4453C11.2752 18.4479 11.2619 18.4465 11.2499 18.4412C11.2277 18.4414 11.209 18.4299 11.1937 18.4066C11.1844 18.4379 11.1697 18.4702 11.1496 18.5034C11.1338 18.5395 11.115 18.5595 11.0935 18.5633C11.0827 18.5652 11.0662 18.5663 11.044 18.5665C11.026 18.5696 11.0021 18.5498 10.9723 18.5068C10.9461 18.4632 10.9123 18.3876 10.8711 18.28C10.8329 18.1681 10.7848 18.0005 10.7268 17.7771C10.6719 17.5495 10.607 17.2551 10.5322 16.8939C10.4574 16.5326 10.3721 16.0805 10.2763 15.5376C10.2377 15.3183 10.1971 15.0882 10.1546 14.8473C10.1115 14.6028 10.0711 14.3634 10.0335 14.129C9.99528 13.8911 9.96074 13.6636 9.92989 13.4466C9.902 13.2254 9.87972 13.0254 9.86303 12.8467C9.84931 12.6637 9.84457 12.5107 9.84882 12.3876C9.85243 12.2609 9.87021 12.1725 9.90215 12.1224C9.92458 12.0814 9.96889 12.0383 10.0351 11.9933C10.1049 11.9476 10.1735 11.9059 10.241 11.868C10.3078 11.8266 10.367 11.7939 10.4184 11.77C10.4691 11.7425 10.4903 11.7258 10.4818 11.7199C10.5011 11.7239 10.5177 11.734 10.5316 11.75C10.5485 11.7619 10.5595 11.7822 10.5646 11.811ZM11.2441 14.5606C11.2189 14.5651 11.1786 14.5573 11.1232 14.5375C11.0714 14.5169 11.0132 14.492 10.9487 14.4626C10.9912 14.7665 11.0337 15.0704 11.0761 15.3743C11.1186 15.6783 11.1585 15.9678 11.1959 16.243C11.2327 16.5145 11.2678 16.766 11.3012 16.9974C11.3381 17.2282 11.3703 17.4208 11.3975 17.5754C11.4286 17.4995 11.464 17.4266 11.5035 17.3566C11.5424 17.283 11.5812 17.2187 11.6197 17.1637C11.6611 17.1045 11.6991 17.057 11.7336 17.0213C11.7716 16.9849 11.8015 16.9648 11.823 16.961C11.8302 16.9597 11.8377 16.9603 11.8456 16.9626C11.8534 16.9649 11.8721 16.9764 11.9017 16.9972C11.9089 16.9959 11.9158 16.9928 11.9223 16.988C11.9289 16.9831 11.9358 16.98 11.943 16.9788C11.9717 16.9737 11.9955 16.9825 12.0143 17.0051C12.0332 17.0278 12.0489 17.075 12.0616 17.1469C12.0686 17.1865 12.0638 17.2225 12.0473 17.2551C12.0308 17.2877 12.0104 17.3191 11.986 17.3493C11.9647 17.3753 11.9415 17.4017 11.9166 17.4283C11.8952 17.4543 11.881 17.4791 11.874 17.5025C11.9041 17.5047 11.9338 17.505 11.9632 17.5035C11.9926 17.502 12.0378 17.4959 12.099 17.4851C12.1307 17.4758 12.1945 17.459 12.2903 17.4347C12.3891 17.4062 12.5119 17.3567 12.6589 17.2863C12.8053 17.2123 12.9706 17.109 13.1548 16.9764C13.3427 16.8432 13.5412 16.6655 13.7504 16.4432C13.9281 16.2525 14.0656 16.0651 14.1629 15.8811C14.2602 15.6971 14.3288 15.5293 14.3688 15.3777C14.4118 15.2218 14.4346 15.088 14.4371 14.9764C14.4397 14.8647 14.4368 14.7855 14.4286 14.7387C14.3907 14.6082 14.312 14.4979 14.1923 14.4078C14.0755 14.3135 13.9275 14.2413 13.7482 14.1914C13.5724 14.1408 13.3711 14.1133 13.1441 14.1088C12.9172 14.1043 12.6779 14.1243 12.4262 14.1687C12.2572 14.1985 12.1096 14.2338 11.9833 14.2746C11.857 14.3154 11.7458 14.3572 11.6495 14.4002C11.5563 14.4389 11.4771 14.4732 11.4119 14.5032C11.3468 14.5333 11.2908 14.5524 11.2441 14.5606Z" fill="#043C34"/>
</g>
</svg>
