<svg width="512" height="261" viewBox="0 0 512 261" fill="none" xmlns="http://www.w3.org/2000/svg">
<g clip-path="url(#clip0_109_69)">
<path d="M509.004 229.715C509.004 229.715 509.004 229.715 509.004 229.68L391.762 16.8553C387.644 7.74003 375.806 0.264466 365.439 0.264466L18.8785 0C8.51097 0 0.0183822 8.12791 0 18.0718V242.251C0 252.194 8.45582 260.34 18.8234 260.34H490.879C502.552 260.34 512 251.26 512 240.082C512 236.309 510.897 232.8 509.022 229.75L509.004 229.715Z" fill="#009FE3"/>
<path d="M414.298 186.043L385.549 215.698C392.938 223.791 404.942 223.773 412.331 215.698L441.1 186.06C433.692 177.968 421.706 177.968 414.317 186.06L414.298 186.043Z" fill="#FFED00"/>
<path d="M374.869 68.1616C367.461 60.0866 355.475 60.0866 348.086 68.1616L211.616 215.698C219.006 223.773 231.009 223.773 238.399 215.698L374.869 68.1616Z" fill="#FFED00"/>
<path d="M391.486 97.2352C384.078 89.1602 372.111 89.1602 364.703 97.2352L254.686 215.733C262.075 223.808 274.079 223.808 281.468 215.733L391.468 97.2528L391.486 97.2352Z" fill="#FFED00"/>
<path d="M407.938 126.609C400.548 118.533 388.545 118.533 381.155 126.609L298.031 215.716C305.42 223.791 317.406 223.791 324.814 215.716L407.938 126.609Z" fill="#FFED00"/>
<path d="M424.335 156.264C416.946 148.189 404.961 148.189 397.552 156.264L341.707 215.716C349.097 223.791 361.101 223.791 368.49 215.716L424.335 156.282V156.264Z" fill="#FFED00"/>
<path d="M64.5034 73.1336L94.7605 40.1106C87.3708 32.0356 75.3672 32.0356 67.9776 40.1106L37.7205 73.1512C45.1101 81.2262 57.1137 81.2262 64.5034 73.1512V73.1336Z" fill="#FFED00"/>
<path d="M310.825 89.8655L357.883 40.1106C350.494 32.0356 338.49 32.0356 331.1 40.1106L284.042 89.8655C291.432 97.9405 303.435 97.9405 310.825 89.8655Z" fill="#FFED00"/>
<path d="M183.05 199.072L167.774 215.716C175.164 223.791 187.168 223.791 194.557 215.716L209.815 199.072C202.425 190.979 190.421 190.979 183.05 199.072Z" fill="#FFED00"/>
<path d="M193.234 170.069C185.844 161.994 173.841 161.994 166.451 170.069L124.632 215.751C132.021 223.826 144.025 223.826 151.414 215.751L193.234 170.069Z" fill="#FFED00"/>
<path d="M171.892 146.003C164.503 137.928 152.499 137.928 145.109 146.003L81.3047 215.716C88.6943 223.791 100.698 223.808 108.088 215.716L171.874 146.003H171.892Z" fill="#FFED00"/>
<path d="M199.19 40.093L37.7205 215.716C45.1101 223.791 57.1137 223.791 64.5034 215.716L225.973 40.093C218.583 32.018 206.58 32.018 199.19 40.093Z" fill="#FFED00"/>
<path d="M64.5034 168.183L181.782 40.093C174.392 32.018 162.389 32.018 154.999 40.093L37.7205 168.183C45.1101 176.258 57.1137 176.258 64.5034 168.183Z" fill="#FFED00"/>
<path d="M64.485 120.508L138.014 40.093C130.624 32.018 118.621 32.018 111.231 40.093L37.7205 120.526C45.1101 128.601 57.0953 128.601 64.485 120.526V120.508Z" fill="#FFED00"/>
</g>
<defs>
<clipPath id="clip0_109_69">
<rect width="512" height="260.34" fill="white"/>
</clipPath>
</defs>
</svg>
