<?xml version="1.0" encoding="UTF-8"?><svg id="Ebene_1" xmlns="http://www.w3.org/2000/svg" viewBox="0 0 151.6 296.08"><defs><style>.cls-1{fill:none;}.cls-1,.cls-2{stroke:#f6b017;stroke-width:7.4px;}.cls-3{fill:#19314e;}.cls-3,.cls-4{stroke-width:0px;}.cls-4,.cls-2{fill:#f6b017;}</style></defs><path class="cls-4" d="M93.49,157.27c3.86,6.29,10.79,9.95,19.58,9.95,12.48,0,21.38-6.91,23.38-18.08.05-.21.09-.43.12-.65.05-.38.1-.77.13-1.16l.02-.17c.03-.23.05-.44.07-.65.05-.63.07-1.22.07-1.69,0-.2.02-.38.02-.57,0-6.1-1.68-11.81-4.87-16.51"/><path class="cls-4" d="M132.02,127.75c-2.11-3.11-4.76-5.58-7.74-7.31,5.33-3.67,8.47-9.52,8.47-16.75,0-10.9-6.51-19.89-15.73-23.03,1.87-2.13,3.2-4.61,3.96-7.39.08-.24.15-.49.21-.75.07-.3.12-.61.18-.92l.02-.11c.03-.16.06-.31.08-.46.08-.53.14-1.06.18-1.65l.03-.38c.08-1.39.03-2.81-.14-4.22-.15-1.27-.4-2.58-.74-3.87-1.73-6.73-5.85-12.47-11.59-16.25.45-.46.88-.95,1.27-1.47.86-1.14,1.56-2.43,2.08-3.83l.12-.34.09-.26c.07-.23.14-.46.21-.71.08-.29.15-.58.21-.88.07-.35.14-.69.19-1.06.06-.43.11-.88.15-1.33.02-.25.03-.49.04-.74.01-.51,0-1.03-.02-1.55,0-.14-.01-.29-.02-.45-.04-.58-.12-1.19-.23-1.88-.04-.22-.08-.44-.12-.66-.1-.52-.22-1.04-.36-1.55-.04-.17-.08-.35-.13-.53-.86-2.99-2.15-5.81-3.84-8.37-2.86-4.33-6.76-7.77-11.29-9.94-1.99-.95-4.08-1.44-6.21-1.44-1.6,0-3.17.28-4.65.83-.65.24-1.25.51-1.82.83-.51.28-.99.6-1.45.95-.66-1.28-1.38-2.49-2.2-3.59-3.2-4.31-7.29-6.68-11.51-6.68-1.16,0-3.44.2-4.99.75.04,36.07.47,72.39.49,108.46.01,33.51.18,66.95.15,100.46,1.35.12,2.98,0,4.41,0,20.74,0,25.81-11.96,27.05-17.78.06-.21.1-.42.14-.63.06-.32.1-.65.14-.99l.02-.17.02-.12c.04-.31.08-.62.11-.94.02-.21.03-.41.03-.61.03-.48.07-1.06.07-1.74"/><path class="cls-3" d="M70.9,208.17s21.96-47.85,76.22-112.41c0,0,.47,24.38.45,32.08-.08,22.43.17,45.02-3.07,67.22-3.54,24.28-4.75,24.94-6.77,33.92-2.44,10.89-5.74,23.3-12,33.11-6.67,10.44-7.56,11.11-17.42,20.22-13.25-7.11-32-38.7-36.23-67.01"/><path class="cls-3" d="M70.78,124.6c-1.25,0-2.97-.11-5.5-.11,0,11.32-.02,24.42-.02,35.74,1.34.14,3.06.06,4.54.06,12.95,0,20.08-6.3,20.08-16.2,0-10.73-7.2-19.49-18.77-19.49"/><path class="cls-3" d="M113.76,123.91c-10.22,0-18.22,9.71-18.22,22.09,0,11.27,6.46,17.73,17.74,17.73s18.7-6.63,18.7-17.73c0-12.39-8-22.09-18.22-22.09"/><path class="cls-3" d="M71.04,195.4c11.5,6.09,27.45-.68,27.45-13.97,0-10.17-10.1-21.78-29.83-14.21"/><path class="cls-3" d="M68.94,87.11c-1.27,0-1.83-.04-3.71-.04,0,7.16.05,14.67.05,21.83,0,3.1-.06,6.34-.05,9.44,1.37,0,2.81,0,4.27,0,10.63,0,16.73-5.11,16.73-14.01,0-9.78-7.65-17.21-17.29-17.21"/><path class="cls-3" d="M95.66,41.98c3.65,0,6.71-1.29,8.4-3.53,1.18-1.57,2.31-4.42.96-9.1-1.74-6.07-5.79-11.01-11.11-13.55-1.93-.92-4.01-.92-5.69.01-1.7.94-2.81,2.71-3.06,4.86-.35,3.09-.25,6.18.3,9.18,1.43,7.87,3.47,12.13,10.19,12.13"/><path class="cls-3" d="M110.9,75.54c2.29-2.58,3.21-5.94,2.73-9.99-.87-7.27-5.1-13.17-11.63-16.21-2.28-1.06-4.84-1.08-7.2-.07-2.43,1.05-4.3,3.09-5.13,5.59-1.22,3.68-1.84,7.36-1.84,10.93,0,9.18,1.74,14.49,10.64,14.49,5.22,0,9.75-1.73,12.43-4.75"/><path class="cls-3" d="M69.14,47.4c-1.37,0-2.67.23-3.92.62,0,10.62,0,21.81,0,32.43,1.56.06,2.72-.06,4.32-.16,9.34-.54,14.72-5.34,14.72-14.65,0-10.23-6.64-18.24-15.12-18.24"/><path class="cls-3" d="M109.02,116.89c9.88,0,15.78-5,15.78-13.36,0-9.32-6.75-16.62-15.37-16.62s-15.37,7.3-15.37,16.62c0,8.49,5.46,13.36,14.97,13.36"/><path class="cls-3" d="M64.94,38.76c1.24.49,2.65.76,4.2.76,6.42,0,10.1-4.57,10.1-12.52,0-12.1-5.88-19.53-10.1-19.53-1.5,0-2.49.47-4.23,1.89"/><path class="cls-2" d="M68.18.73l.57,195.18s4.1,96.51,69.65,96.35l-138.06.05s70.04,6.37,68.45-103.47"/><rect class="cls-4" x="48.2" y="160.23" width="17.52" height="6.63"/><rect class="cls-4" x="48.04" y="118.34" width="17.68" height="6.63"/><rect class="cls-4" x="48.03" y="80.47" width="17.69" height="6.63"/><rect class="cls-4" x="43.32" y="74.17" width="5.61" height="19.05"/><rect class="cls-4" x="43.45" y="112.67" width="5.61" height="19.05"/><rect class="cls-4" x="43.38" y="154.02" width="5.61" height="19.05"/><path class="cls-1" d="M69.91,207.57s48.04-86.81,77.15-111.81c0,0,10.74,160.88-45.01,185.5"/></svg>